<?xml version="1.0" standalone="no"?>
<!DOCTYPE svg PUBLIC "-//W3C//DTD SVG 20010904//EN"
 "http://www.w3.org/TR/2001/REC-SVG-20010904/DTD/svg10.dtd">
<svg version="1.0" xmlns="http://www.w3.org/2000/svg"
 width="700.000000pt" height="700.000000pt" viewBox="0 0 700.000000 700.000000"
 preserveAspectRatio="xMidYMid meet">
<metadata>
Created by potrace 1.11, written by Peter Selinger 2001-2013
</metadata>
<g transform="translate(0.000000,700.000000) scale(0.100000,-0.100000)"
fill="#000000" stroke="none">
<path d="M3265 6923 c-16 -1 -54 -6 -83 -9 l-52 -5 2 -752 3 -751 373 0 372
-1 0 368 0 369 28 -6 c15 -3 44 -8 64 -10 141 -21 430 -105 563 -166 200 -90
320 -156 461 -250 225 -153 481 -396 635 -605 24 -33 46 -62 49 -65 3 -3 33
-48 66 -100 117 -183 223 -405 289 -606 30 -90 81 -295 90 -357 3 -23 10 -67
15 -97 30 -174 33 -584 6 -725 -3 -18 -9 -53 -22 -140 -7 -45 -42 -191 -65
-270 -70 -243 -220 -561 -354 -748 -35 -50 -161 -213 -191 -248 -50 -58 -229
-234 -280 -275 -27 -21 -53 -44 -59 -51 -19 -22 -200 -147 -302 -209 -88 -53
-249 -137 -318 -164 -11 -4 -37 -15 -58 -25 -189 -83 -494 -156 -755 -181
l-73 -7 21 34 c12 19 60 86 108 150 48 64 178 240 289 390 112 151 329 445
484 654 476 643 581 785 676 915 51 69 96 130 101 135 63 77 300 410 313 441
35 78 32 179 -7 263 -23 49 -94 115 -150 141 -93 42 -225 30 -304 -28 -50 -38
-42 -28 -215 -262 -88 -118 -163 -219 -168 -225 -4 -5 -51 -68 -103 -140 -53
-71 -137 -186 -188 -255 -190 -256 -612 -826 -631 -853 -11 -15 -56 -75 -100
-135 -44 -59 -195 -262 -335 -452 -260 -352 -337 -456 -370 -500 -10 -14 -47
-63 -81 -110 -66 -91 -87 -112 -100 -104 -5 3 -52 16 -105 29 -92 24 -179 51
-195 61 -4 2 28 53 72 112 43 59 155 211 249 337 93 127 173 235 178 240 4 6
46 62 93 125 46 63 134 182 194 263 112 151 431 582 462 626 72 98 466 629
476 641 7 8 48 65 93 125 44 61 137 187 206 280 455 613 519 703 533 745 87
261 -171 498 -420 385 -67 -31 -88 -51 -183 -180 -45 -60 -85 -114 -90 -120
-8 -9 -150 -202 -292 -395 -185 -250 -269 -365 -426 -575 -162 -218 -416 -563
-452 -613 -9 -13 -24 -32 -32 -42 -8 -10 -125 -168 -260 -350 -135 -183 -281
-381 -325 -440 -44 -60 -154 -209 -245 -332 -90 -123 -168 -227 -173 -233 -20
-25 -213 -286 -222 -301 -9 -14 -24 -6 -108 55 -54 39 -112 84 -129 100 l-30
28 117 159 c147 198 182 246 192 259 5 6 90 120 189 255 99 135 200 271 225
304 24 32 65 88 91 125 27 36 54 73 60 81 7 8 31 40 53 70 46 64 47 66 78 105
135 174 515 700 531 735 29 64 27 177 -5 245 -52 111 -155 177 -279 178 -85 1
-162 -28 -215 -80 -16 -16 -103 -128 -192 -249 -90 -120 -237 -320 -329 -444
-91 -124 -193 -261 -226 -305 -32 -44 -104 -141 -159 -215 -55 -74 -109 -146
-119 -160 -19 -25 -63 -86 -298 -405 -69 -93 -131 -176 -137 -183 -9 -10 -22
2 -62 60 -27 40 -69 105 -92 144 l-42 72 366 493 c201 272 483 654 627 849
145 195 266 360 271 365 4 6 91 123 192 260 119 161 191 267 201 298 74 222
-118 447 -348 405 -116 -21 -151 -54 -353 -333 -8 -11 -104 -140 -213 -287
-108 -146 -263 -355 -344 -465 -80 -109 -202 -273 -270 -365 -67 -91 -181
-245 -253 -342 -71 -97 -133 -176 -136 -176 -5 0 -22 82 -35 170 -2 14 -6 39
-9 55 -31 188 -25 579 11 775 2 14 7 43 10 65 9 62 63 272 89 352 56 167 145
364 222 495 35 58 104 169 115 183 4 6 43 56 85 111 61 79 174 212 220 258 3
2 -116 125 -264 274 l-269 269 -70 -75 c-121 -131 -174 -193 -263 -315 -173
-233 -322 -500 -426 -762 -26 -66 -94 -258 -99 -280 -2 -5 -8 -30 -15 -55 -7
-25 -15 -52 -17 -60 -41 -162 -60 -258 -88 -450 -29 -197 -29 -628 0 -855 39
-309 116 -597 237 -891 54 -132 174 -369 231 -459 111 -172 139 -214 228 -330
140 -183 361 -409 539 -551 41 -32 76 -61 79 -64 3 -3 50 -37 105 -76 186
-132 418 -264 605 -343 41 -18 89 -39 105 -46 65 -29 337 -116 450 -144 293
-72 498 -96 825 -96 250 0 359 9 585 46 389 64 800 215 1160 427 147 86 362
239 469 332 433 377 715 761 950 1295 7 17 18 41 24 55 6 14 32 86 57 160 74
216 140 506 160 700 4 36 10 94 15 130 8 68 6 557 -3 600 -3 14 -8 54 -12 88
-6 69 -27 196 -50 307 -118 572 -419 1159 -815 1589 -143 156 -333 331 -444
411 -16 11 -33 25 -40 31 -6 6 -61 45 -122 86 -259 177 -545 321 -824 414 -47
15 -87 29 -90 29 -3 1 -12 4 -20 7 -8 4 -26 9 -40 12 -14 4 -65 17 -115 31
-108 28 -277 60 -400 75 -49 6 -103 13 -120 16 -36 6 -517 13 -560 7z"/>
</g>
</svg>
